<svg xmlns="http://www.w3.org/2000/svg" viewBox="0 0 840.91 225.15"><defs><style>.cls-1{fill:#fff;}.cls-2{fill:#7a0000;}</style></defs><title>SBhootAnim</title><g id="Owl-3"><polygon class="cls-1" points="720.33 52.9 708.07 64.44 710.66 85.56 732.25 94.53 747.35 76 740.86 55.2 720.33 52.9"/><path class="cls-1" d="M677.28,71.7s9.52-6.13,19-2.67S712,85.78,712,85.78L705,101l-14.72,4.9L673.67,96l-6.22-14.08Z" transform="translate(-13.42 -13.15)"/><path d="M672.42,92.31s13.46,6.89,34.29,2.32C706.71,94.63,683.3,106.49,672.42,92.31Z" transform="translate(-13.42 -13.15)"/><path d="M758.73,92.31s-13.46,6.89-34.29,2.32C724.44,94.63,747.86,106.49,758.73,92.31Z" transform="translate(-13.42 -13.15)"/><path class="cls-2" d="M688.67,111.51c-26,0-33.89-37-6.4-42.17-12.59,6.35-12.11,24.55.17,30.79s29.92-9,18.9-22.18c-4.2-5-12.71-6.49-18.28-10.24a46,46,0,0,1-16.12-18.25,43.56,43.56,0,0,1-3.07-28.27c15.55-1.43,36.85-1.34,47.61,13l-2.92,9.91c-9.8-10-22.4-13.51-35.93-13.12.13,11.69,6.41,21.62,15.55,27.87,6.31,4.31,13.93,4.86,19.19,10.34C723.61,86.12,710.36,111.51,688.67,111.51Z" transform="translate(-13.42 -13.15)"/><path class="cls-2" d="M716.08,85c.24,32.64,48.82,35.64,49.46-1.08,0,0-1.07-15.32-13.14-21.64l-.21-.19a43.65,43.65,0,0,0,9.19-12.66,43.56,43.56,0,0,0,3.07-28.27c-15.55-1.43-37.19-1-48,13.39l-.42,49.09M755.69,31A33.49,33.49,0,0,1,744.6,55.29C738.55,59.47,731.49,61.48,726,65V41C734.22,32.69,745.21,30.68,755.69,31ZM747.54,99.2c-11.81,6-21.67-4-22-14.37l0-2.12a15,15,0,0,1,6.83-11.29C751.51,58.61,766.63,89.5,747.54,99.2Z" transform="translate(-13.42 -13.15)"/><path d="M725,107.73a17.65,17.65,0,0,0-18.83,0l-.74.54.08.93a16.3,16.3,0,0,0,5.36,10.91,16.94,16.94,0,0,0,4.7,3.08h0a17,17,0,0,0,4.69-3.08,16.3,16.3,0,0,0,5.36-10.91l.08-.93Z" transform="translate(-13.42 -13.15)"/><rect x="563.41" y="205.8" width="277.5" height="9.83"/><path class="cls-2" d="M672.9,114.33s-23.09,50.1,19.44,95C692.34,209.35,615.4,176.47,672.9,114.33Z" transform="translate(-13.42 -13.15)"/><path class="cls-2" d="M758.65,112s23,50.12-19.56,95C739.09,207,816.08,174.22,758.65,112Z" transform="translate(-13.42 -13.15)"/><path d="M705.22,199.58l2.61,2.33a20.28,20.28,0,0,0-2.41-6.65C705.42,196.64,705.35,198.11,705.22,199.58Z" transform="translate(-13.42 -13.15)"/><path d="M725.73,195.26s-2,1.87-2.9,6.33l3.11-2C725.81,198.11,725.73,196.64,725.73,195.26Z" transform="translate(-13.42 -13.15)"/><path d="M751.55,116.11a2.81,2.81,0,0,0-1-1C742.33,110.34,736,112,736,112c10.07,14.28,5.4,43.86,3.09,55.3L738,172c-20.33,44.63-37.9,15-43.23,3.78L693.14,172l-1-4.67c-2.32-11.44-7-41,3.08-55.3,0,0-6.36-1.68-14.61,3.07a2.92,2.92,0,0,0-1,1c-5.4,6-29.65,39.05,23,98.65a110.92,110.92,0,0,0,2.64-15.18l10.36,18.14,10.36-18.14a109.2,109.2,0,0,0,2.64,15.18C781.2,155.16,757,122.14,751.55,116.11Z" transform="translate(-13.42 -13.15)"/><path class="cls-2" d="M694.91,211.13s-16.54-5.83-20.39,4.17c-2.57,6.7-1,22.17,15.52,23,0,0-2.84-17.5,10.83-21.67A42.44,42.44,0,0,1,694.91,211.13Z" transform="translate(-13.42 -13.15)"/><path class="cls-2" d="M735.23,210.52s16.55-5.83,20.39,4.17c2.58,6.7,1,22.16-15.51,23,0,0,2.83-17.5-10.83-21.67A42,42,0,0,0,735.23,210.52Z" transform="translate(-13.42 -13.15)"/><circle cx="776.96" cy="26.75" r="10.43"/><circle cx="787.98" cy="58.55" r="4.92"/><circle cx="766.27" cy="78.13" r="3.37"/></g><g id="Owl-2"><polygon class="cls-1" points="438.56 49.39 426.29 60.93 428.88 82.05 450.47 91.01 465.57 72.49 459.08 51.69 438.56 49.39"/><path class="cls-1" d="M395.51,68.19s9.51-6.14,19-2.68,15.65,16.76,15.65,16.76l-7,15.23-14.72,4.9-16.58-9.91-6.21-14.08Z" transform="translate(-13.42 -13.15)"/><path d="M390.64,84.93s13.46,6.88,34.29,2.32C424.93,87.25,401.52,99.11,390.64,84.93Z" transform="translate(-13.42 -13.15)"/><path d="M477,84.93s-13.45,6.88-34.29,2.32C442.66,87.25,466.08,99.11,477,84.93Z" transform="translate(-13.42 -13.15)"/><path class="cls-2" d="M406.89,108c-26,0-33.89-37-6.4-42.17-12.59,6.35-12.11,24.55.17,30.79s29.92-9,18.9-22.18c-4.2-5-12.71-6.49-18.28-10.24A46.08,46.08,0,0,1,385.16,46a43.63,43.63,0,0,1-3.07-28.27c15.56-1.43,36.86-1.34,47.61,13l-2.92,9.91c-9.8-10-22.4-13.51-35.93-13.12.13,11.69,6.41,21.62,15.55,27.87,6.31,4.31,13.94,4.86,19.19,10.34C441.83,82.6,428.58,108,406.89,108Z" transform="translate(-13.42 -13.15)"/><path class="cls-2" d="M434.3,81.52c.24,32.63,48.82,35.64,49.47-1.08,0,0-1.08-15.32-13.15-21.64l-.21-.2a43,43,0,0,0,12.26-40.92c-15.55-1.43-37.19-.95-47.95,13.39l-.42,49.09m39.62-52.69a33.47,33.47,0,0,1-11.09,24.3c-6.06,4.19-13.12,6.2-18.65,9.68v-24C452.44,29.18,463.43,27.17,473.92,27.47Zm-8.16,68.22c-11.81,6-21.67-4-22-14.37l.06-2.12a15,15,0,0,1,6.82-11.29C469.73,55.1,484.85,86,465.76,95.69Z" transform="translate(-13.42 -13.15)"/><path d="M443.22,104.22a17.62,17.62,0,0,0-18.84,0l-.74.53.08.94a16.36,16.36,0,0,0,5.36,10.91,16.94,16.94,0,0,0,4.7,3.08h0a17,17,0,0,0,4.69-3.08,16.37,16.37,0,0,0,5.37-10.91l.07-.94Z" transform="translate(-13.42 -13.15)"/><rect x="281.63" y="205.79" width="277.5" height="9.83"/><path class="cls-2" d="M391.13,114.32s-23.1,50.09,19.44,95C410.57,209.34,333.62,176.46,391.13,114.32Z" transform="translate(-13.42 -13.15)"/><path class="cls-2" d="M476.87,112s23,50.12-19.56,95C457.31,207,534.3,174.21,476.87,112Z" transform="translate(-13.42 -13.15)"/><path d="M423.44,199.57l2.61,2.32a20,20,0,0,0-2.41-6.64C423.65,196.63,423.57,198.09,423.44,199.57Z" transform="translate(-13.42 -13.15)"/><path d="M444,195.25s-2,1.86-2.9,6.33l3.11-2C444,198.09,444,196.63,444,195.25Z" transform="translate(-13.42 -13.15)"/><path d="M469.77,116.1a2.73,2.73,0,0,0-1-1c-8.25-4.75-14.62-3.07-14.62-3.07,10.07,14.28,5.4,43.86,3.09,55.3l-1,4.66c-20.33,44.63-37.9,15-43.23,3.79L411.36,172l-1-4.66c-2.32-11.44-7-41,3.08-55.3,0,0-6.36-1.68-14.61,3.07a2.83,2.83,0,0,0-1,1c-5.4,6-29.65,39.05,23,98.65a111.27,111.27,0,0,0,2.64-15.18l10.36,18.14,10.36-18.14a109.54,109.54,0,0,0,2.64,15.18C499.42,155.15,475.17,122.13,469.77,116.1Z" transform="translate(-13.42 -13.15)"/><path class="cls-2" d="M413.14,211.12s-16.55-5.83-20.39,4.17c-2.58,6.7-1,22.17,15.51,23,0,0-2.84-17.5,10.83-21.67A42,42,0,0,1,413.14,211.12Z" transform="translate(-13.42 -13.15)"/><path class="cls-2" d="M453.45,210.51s16.55-5.83,20.39,4.17c2.58,6.7,1,22.16-15.51,23,0,0,2.83-17.5-10.83-21.67A42,42,0,0,0,453.45,210.51Z" transform="translate(-13.42 -13.15)"/><circle cx="499.5" cy="27.36" r="10.43"/><circle cx="495.67" cy="59.16" r="4.92"/><circle cx="484.74" cy="78.74" r="3.37"/></g><g id="Owl-1"><polygon class="cls-1" points="156.92 45.46 144.65 57 147.25 78.11 168.84 87.08 183.94 68.56 177.45 47.76 156.92 45.46"/><path class="cls-1" d="M113.87,64.25s9.52-6.13,19-2.67,15.65,16.75,15.65,16.75l-7,15.24-14.72,4.89-16.58-9.91L104,74.48Z" transform="translate(-13.42 -13.15)"/><path d="M108.57,78s13.46,6.88,34.29,2.32C142.86,80.28,119.45,92.14,108.57,78Z" transform="translate(-13.42 -13.15)"/><path d="M194.88,78s-13.45,6.88-34.28,2.32C160.6,80.28,184,92.14,194.88,78Z" transform="translate(-13.42 -13.15)"/><path class="cls-2" d="M125.26,104.07c-26,0-33.9-37-6.4-42.17-12.59,6.34-12.11,24.54.16,30.78s29.93-9,18.91-22.17c-4.2-5-12.71-6.5-18.28-10.25A46,46,0,0,1,103.53,42a43.55,43.55,0,0,1-3.07-28.27c15.55-1.42,36.85-1.34,47.61,13l-2.92,9.91c-9.8-10-22.4-13.5-35.93-13.11.13,11.69,6.41,21.62,15.55,27.86,6.31,4.31,13.93,4.87,19.19,10.34C160.2,78.67,147,104.07,125.26,104.07Z" transform="translate(-13.42 -13.15)"/><path class="cls-2" d="M152.67,77.59c.24,32.63,48.81,35.64,49.46-1.08,0,0-1.07-15.32-13.14-21.65l-.22-.19A43.49,43.49,0,0,0,198,42,43.55,43.55,0,0,0,201,13.74c-15.56-1.42-37.19-.94-47.95,13.4l-.42,49.09m39.61-52.69a33.47,33.47,0,0,1-11.09,24.3c-6.05,4.18-13.11,6.2-18.64,9.68v-24C170.81,25.25,181.79,23.23,192.28,23.54Zm-8.15,68.22c-11.81,6-21.67-4-22-14.37l.06-2.13A15,15,0,0,1,169,64C188.1,51.16,203.22,82.05,184.13,91.76Z" transform="translate(-13.42 -13.15)"/><path d="M161.58,100.28a17.65,17.65,0,0,0-18.83,0l-.74.54.08.94a16.32,16.32,0,0,0,5.36,10.91,17.06,17.06,0,0,0,4.7,3.08h0a17.06,17.06,0,0,0,4.7-3.08,16.32,16.32,0,0,0,5.36-10.91l.08-.94Z" transform="translate(-13.42 -13.15)"/><rect y="205.79" width="277.5" height="9.83"/><path class="cls-2" d="M109.49,114.32s-23.1,50.09,19.44,95C128.93,209.34,52,176.46,109.49,114.32Z" transform="translate(-13.42 -13.15)"/><path class="cls-2" d="M195.24,112s23,50.12-19.56,95C175.68,207,252.67,174.21,195.24,112Z" transform="translate(-13.42 -13.15)"/><path d="M141.8,199.57l2.62,2.32a20.27,20.27,0,0,0-2.41-6.64C142,196.63,141.93,198.09,141.8,199.57Z" transform="translate(-13.42 -13.15)"/><path d="M162.32,195.25s-2,1.86-2.9,6.33l3.11-2C162.4,198.09,162.32,196.63,162.32,195.25Z" transform="translate(-13.42 -13.15)"/><path d="M188.14,116.1a2.75,2.75,0,0,0-1-1c-8.25-4.75-14.61-3.07-14.61-3.07,10.07,14.28,5.4,43.86,3.08,55.3l-1,4.66c-20.33,44.63-37.9,15-43.23,3.79L129.73,172l-1-4.66c-2.32-11.44-7-41,3.08-55.3,0,0-6.36-1.68-14.61,3.07a2.75,2.75,0,0,0-1,1c-5.4,6-29.65,39.05,23,98.65a110.34,110.34,0,0,0,2.63-15.18l10.37,18.14,10.36-18.14a110.34,110.34,0,0,0,2.63,15.18C217.79,155.15,193.54,122.13,188.14,116.1Z" transform="translate(-13.42 -13.15)"/><path class="cls-2" d="M131.5,211.12s-16.54-5.83-20.39,4.17c-2.57,6.7-1,22.17,15.51,23,0,0-2.83-17.5,10.84-21.67A42.44,42.44,0,0,1,131.5,211.12Z" transform="translate(-13.42 -13.15)"/><path class="cls-2" d="M171.82,210.51s16.54-5.83,20.39,4.17c2.58,6.7,1,22.16-15.51,23,0,0,2.83-17.5-10.84-21.67A41.87,41.87,0,0,0,171.82,210.51Z" transform="translate(-13.42 -13.15)"/><circle cx="213.54" cy="33.93" r="10.43"/><circle cx="218.46" cy="64.08" r="4.92"/><circle cx="199.74" cy="82.63" r="3.37"/></g></svg>