<?xml version="1.0" encoding="utf-8"?>
<!-- Generator: Adobe Illustrator 22.1.0, SVG Export Plug-In . SVG Version: 6.00 Build 0)  -->
<svg version="1.1" id="Layer_1" xmlns="http://www.w3.org/2000/svg" xmlns:xlink="http://www.w3.org/1999/xlink" x="0px" y="0px"
	 viewBox="0 0 832.9 225.2" style="enable-background:new 0 0 832.9 225.2;" xml:space="preserve">
<style type="text/css">
	.st0{fill:#FFFFFF;}
	.st1{fill:#7A0000;}
</style>
<title>SBhootAnim</title>
<g id="Owl-3">
	<polygon class="st0" points="712.3,52.9 700.1,64.4 702.7,85.6 724.2,94.5 739.3,76 732.9,55.2 	"/>
	<path class="st0" d="M655.9,58.6c0,0,9.5-6.1,19-2.7s15.7,16.8,15.7,16.8l-7,15.2l-14.7,4.9l-16.6-9.9L646,68.8L655.9,58.6z"/>
	<path d="M651,79.2c0,0,13.5,6.9,34.3,2.3C685.3,81.5,661.9,93.3,651,79.2z"/>
	<path d="M737.3,79.2c0,0-13.5,6.9-34.3,2.3C703,81.5,726.4,93.3,737.3,79.2z"/>
	<path class="st1" d="M667.2,98.4c-26,0-33.9-37-6.4-42.2c-12.6,6.3-12.1,24.5,0.2,30.8s29.9-9,18.9-22.2c-4.2-5-12.7-6.5-18.3-10.2
		c-6.9-4.5-12.5-10.8-16.1-18.2c-4.2-8.8-5.2-18.8-3.1-28.3c15.5-1.4,36.8-1.3,47.6,13l-2.9,9.9c-9.8-10-22.4-13.5-35.9-13.1
		c0.1,11.7,6.4,21.6,15.5,27.9c6.3,4.3,13.9,4.9,19.2,10.3C702.2,73,688.9,98.4,667.2,98.4z"/>
	<path class="st1" d="M694.7,71.9c0.2,32.6,48.8,35.6,49.5-1.1c0,0-1.1-15.3-13.1-21.6l-0.2-0.2c3.8-3.6,6.9-7.9,9.2-12.7
		c4.2-8.8,5.2-18.8,3.1-28.3c-15.5-1.4-37.2-1-48,13.4l-0.4,49.1 M734.3,17.9c-0.2,9.3-4.2,18.1-11.1,24.3c-6,4.2-13.1,6.2-18.6,9.7
		v-24C712.8,19.5,723.8,17.5,734.3,17.9z M726.1,86.1c-11.8,6-21.7-4-22-14.4v-2.1c0.4-4.6,2.9-8.8,6.8-11.3
		C730.1,45.5,745.2,76.4,726.1,86.1z"/>
	<path d="M703.6,94.6c-5.8-3.6-13.1-3.6-18.8,0l-0.7,0.5l0.1,0.9c0.3,4.2,2.2,8.1,5.4,10.9c1.4,1.3,3,2.3,4.7,3.1l0,0
		c1.7-0.8,3.3-1.8,4.7-3.1c3.1-2.8,5-6.7,5.4-10.9l0.1-0.9L703.6,94.6z"/>
	<rect x="555.4" y="205.8" width="277.5" height="9.8"/>
	<path class="st1" d="M651.5,101.2c0,0-23.1,50.1,19.4,95C670.9,196.2,594,163.3,651.5,101.2z"/>
	<path class="st1" d="M737.2,98.9c0,0,23,50.1-19.6,95C717.7,193.9,794.7,161.1,737.2,98.9z"/>
	<path d="M683.8,186.4l2.6,2.3c-0.4-2.3-1.2-4.6-2.4-6.6C684,183.5,683.9,185,683.8,186.4z"/>
	<path d="M704.3,182.1c0,0-2,1.9-2.9,6.3l3.1-2C704.4,185,704.3,183.5,704.3,182.1z"/>
	<path d="M730.1,103c-0.2-0.4-0.6-0.8-1-1c-8.2-4.8-14.5-3.1-14.5-3.1c10.1,14.3,5.4,43.9,3.1,55.3l-1.1,4.7
		c-20.3,44.6-37.9,15-43.2,3.8l-1.6-3.8l-1-4.7c-2.3-11.4-7-41,3.1-55.3c0,0-6.4-1.7-14.6,3.1c-0.4,0.2-0.8,0.6-1,1
		c-5.4,6-29.7,39,23,98.7c1.2-5,2.1-10.1,2.6-15.2l10.4,18.1l10.4-18.1c0.5,5.1,1.4,10.2,2.6,15.2C759.8,142,735.6,109,730.1,103z"
		/>
	<path class="st1" d="M673.5,198c0,0-16.5-5.8-20.4,4.2c-2.6,6.7-1,22.2,15.5,23c0,0-2.8-17.5,10.8-21.7
		C677.3,201.8,675.3,200,673.5,198z"/>
	<path class="st1" d="M713.8,197.4c0,0,16.5-5.8,20.4,4.2c2.6,6.7,1,22.2-15.5,23c0,0,2.8-17.5-10.8-21.7
		C710,201.2,712,199.4,713.8,197.4z"/>
	<circle cx="769" cy="26.8" r="10.4"/>
	<circle cx="780" cy="58.6" r="4.9"/>
	<circle cx="758.3" cy="78.1" r="3.4"/>
</g>
<g id="Owl-2">
	<polygon class="st0" points="434.6,49.4 422.3,60.9 424.9,82.1 446.5,91 461.6,72.5 455.1,51.7 	"/>
	<path class="st0" d="M378.1,55c0,0,9.5-6.1,19-2.7s15.6,16.8,15.6,16.8l-7,15.2L391,89.3l-16.6-9.9l-6.2-14.1L378.1,55z"/>
	<path d="M373.2,71.8c0,0,13.5,6.9,34.3,2.3C407.5,74.1,384.1,86,373.2,71.8z"/>
	<path d="M459.6,71.8c0,0-13.5,6.9-34.3,2.3C425.2,74.1,448.7,86,459.6,71.8z"/>
	<path class="st1" d="M389.5,94.9c-26,0-33.9-37-6.4-42.2c-12.6,6.3-12.1,24.6,0.2,30.8s29.9-9,18.9-22.2c-4.2-5-12.7-6.5-18.3-10.2
		c-6.9-4.5-12.5-10.8-16.1-18.2c-4.2-8.8-5.2-18.8-3.1-28.3c15.6-1.4,36.9-1.3,47.6,13l-2.9,9.9c-9.8-10-22.4-13.5-35.9-13.1
		c0.1,11.7,6.4,21.6,15.5,27.9c6.3,4.3,13.9,4.9,19.2,10.3C424.4,69.5,411.2,94.9,389.5,94.9z"/>
	<path class="st1" d="M416.9,68.4c0.2,32.6,48.8,35.6,49.5-1.1c0,0-1.1-15.3-13.1-21.6l-0.2-0.2C464,35,468.7,19.4,465.2,4.5
		c-15.5-1.4-37.2-1-48,13.4L416.9,67 M456.5,14.3c-0.2,9.3-4.2,18.1-11.1,24.3c-6.1,4.2-13.1,6.2-18.6,9.7v-24
		C435,16,446,14,456.5,14.3L456.5,14.3z M448.3,82.5c-11.8,6-21.7-4-22-14.4l0.1-2.1c0.4-4.6,2.9-8.8,6.8-11.3
		C452.3,42,467.4,72.9,448.3,82.5L448.3,82.5z"/>
	<path d="M425.8,91.1c-5.8-3.6-13.1-3.6-18.8,0l-0.7,0.5l0.1,0.9c0.3,4.2,2.2,8.1,5.4,10.9c1.4,1.3,3,2.3,4.7,3.1l0,0
		c1.7-0.8,3.3-1.8,4.7-3.1c3.1-2.8,5-6.7,5.4-10.9l0.1-0.9L425.8,91.1z"/>
	<rect x="277.6" y="205.8" width="277.5" height="9.8"/>
	<path class="st1" d="M373.7,101.2c0,0-23.1,50.1,19.4,95C393.1,196.2,316.2,163.3,373.7,101.2z"/>
	<path class="st1" d="M459.4,98.9c0,0,23,50.1-19.6,95C439.9,193.9,516.9,161.1,459.4,98.9z"/>
	<path d="M406,186.4l2.6,2.3c-0.4-2.3-1.2-4.6-2.4-6.6C406.2,183.5,406.1,184.9,406,186.4z"/>
	<path d="M426.6,182.1c0,0-2,1.9-2.9,6.3l3.1-2C426.6,184.9,426.6,183.5,426.6,182.1z"/>
	<path d="M452.3,103c-0.2-0.4-0.6-0.8-1-1c-8.2-4.8-14.6-3.1-14.6-3.1c10.1,14.3,5.4,43.9,3.1,55.3l-1,4.7
		c-20.3,44.6-37.9,15-43.2,3.8l-1.6-3.8l-1-4.7c-2.3-11.4-7-41,3.1-55.3c0,0-6.4-1.7-14.6,3.1c-0.4,0.2-0.8,0.6-1,1
		c-5.4,6-29.6,39,23,98.7c1.2-5,2.1-10.1,2.6-15.2l10.4,18.1l10.4-18.1c0.5,5.1,1.4,10.2,2.6,15.2C482,142,457.8,109,452.3,103z"/>
	<path class="st1" d="M395.7,198c0,0-16.5-5.8-20.4,4.2c-2.6,6.7-1,22.2,15.5,23c0,0-2.8-17.5,10.8-21.7
		C399.5,201.8,397.5,200,395.7,198z"/>
	<path class="st1" d="M436,197.4c0,0,16.5-5.8,20.4,4.2c2.6,6.7,1,22.2-15.5,23c0,0,2.8-17.5-10.8-21.7
		C432.2,201.2,434.2,199.4,436,197.4z"/>
	<circle cx="495.5" cy="27.4" r="10.4"/>
	<circle cx="491.7" cy="59.2" r="4.9"/>
	<circle cx="480.7" cy="78.7" r="3.4"/>
</g>
<g id="Owl-1">
	<polygon class="st0" points="156.9,45.5 144.6,57 147.2,78.1 168.8,87.1 183.9,68.6 177.4,47.8 	"/>
	<path class="st0" d="M100.5,51.1c0,0,9.5-6.1,19-2.7c9.5,3.5,15.6,16.8,15.6,16.8l-7,15.2l-14.7,4.9l-16.6-9.9l-6.2-14.1
		L100.5,51.1z"/>
	<path d="M95.2,64.9c0,0,13.5,6.9,34.3,2.3C129.4,67.1,106,79,95.2,64.9z"/>
	<path d="M181.5,64.9c0,0-13.4,6.9-34.3,2.3C147.2,67.1,170.6,79,181.5,64.9z"/>
	<path class="st1" d="M111.8,90.9c-26,0-33.9-37-6.4-42.2c-12.6,6.3-12.1,24.5,0.2,30.8s29.9-9,18.9-22.2c-4.2-5-12.7-6.5-18.3-10.2
		c-6.9-4.5-12.5-10.8-16.1-18.3C86,20,84.9,10.1,87,0.6c15.6-1.4,36.8-1.3,47.6,13l-2.9,9.9c-9.8-10-22.4-13.5-35.9-13.1
		c0.1,11.7,6.4,21.6,15.6,27.9c6.3,4.3,13.9,4.9,19.2,10.3C146.8,65.5,133.6,90.9,111.8,90.9z"/>
	<path class="st1" d="M139.2,64.4c0.2,32.6,48.8,35.6,49.5-1.1c0,0-1.1-15.3-13.1-21.7l-0.2-0.2c3.8-3.6,6.9-7.9,9.2-12.7
		c4.1-8.8,5.2-18.8,3-28.3C172-0.8,150.4-0.3,139.6,14l-0.4,49.1 M178.8,10.4c-0.2,9.3-4.2,18.1-11.1,24.3
		c-6.1,4.2-13.1,6.2-18.6,9.7v-24C157.4,12.1,168.4,10.1,178.8,10.4L178.8,10.4z M170.7,78.6c-11.8,6-21.7-4-22-14.4l0.1-2.1
		c0.4-4.6,3-8.8,6.8-11.3C174.7,38,189.8,68.9,170.7,78.6L170.7,78.6z"/>
	<path d="M148.2,87.1c-5.8-3.6-13.1-3.6-18.8,0l-0.7,0.5l0.1,0.9c0.3,4.2,2.2,8.1,5.4,10.9c1.4,1.3,3,2.3,4.7,3.1l0,0
		c1.7-0.8,3.3-1.8,4.7-3.1c3.1-2.8,5-6.7,5.4-10.9l0.1-0.9L148.2,87.1z"/>
	<rect y="205.8" width="277.5" height="9.8"/>
	<path class="st1" d="M96.1,101.2c0,0-23.1,50.1,19.4,95C115.5,196.2,38.6,163.3,96.1,101.2z"/>
	<path class="st1" d="M181.8,98.9c0,0,23,50.1-19.6,95C162.3,193.9,239.2,161.1,181.8,98.9z"/>
	<path d="M128.4,186.4l2.6,2.3c-0.4-2.3-1.2-4.6-2.4-6.6C128.6,183.5,128.5,184.9,128.4,186.4z"/>
	<path d="M148.9,182.1c0,0-2,1.9-2.9,6.3l3.1-2C149,184.9,148.9,183.5,148.9,182.1z"/>
	<path d="M174.7,103c-0.2-0.4-0.6-0.8-1-1c-8.2-4.8-14.6-3.1-14.6-3.1c10.1,14.3,5.4,43.9,3.1,55.3l-1,4.7
		c-20.3,44.6-37.9,15-43.2,3.8l-1.7-3.8l-1-4.7c-2.3-11.4-7-41,3.1-55.3c0,0-6.4-1.7-14.6,3.1c-0.4,0.2-0.8,0.6-1,1
		c-5.4,6-29.7,39,23,98.7c1.2-5,2.1-10.1,2.6-15.2l10.4,18.1l10.4-18.1c0.5,5.1,1.4,10.2,2.6,15.2C204.4,142,180.1,109,174.7,103z"
		/>
	<path class="st1" d="M118.1,198c0,0-16.5-5.8-20.4,4.2c-2.6,6.7-1,22.2,15.5,23c0,0-2.8-17.5,10.8-21.7
		C121.9,201.8,119.9,200,118.1,198z"/>
	<path class="st1" d="M158.4,197.4c0,0,16.5-5.8,20.4,4.2c2.6,6.7,1,22.2-15.5,23c0,0,2.8-17.5-10.8-21.7
		C154.6,201.2,156.6,199.4,158.4,197.4z"/>
	<circle cx="213.5" cy="33.9" r="10.4"/>
	<circle cx="218.5" cy="64.1" r="4.9"/>
	<circle cx="199.7" cy="82.6" r="3.4"/>
</g>
</svg>
