<svg xmlns="http://www.w3.org/2000/svg" viewBox="0 0 760.75 438.6"><defs><style>.cls-1{fill:#fff;}.cls-2{fill:#b70000;}</style></defs><title>SBhoot</title><g id="Layer_2" data-name="Layer 2"><polygon class="cls-1" points="476.95 192.67 424.95 241.6 435.95 331.1 527.45 369.1 591.45 290.6 563.95 202.43 476.95 192.67"/><path class="cls-1" d="M237.62,216.6s40.33-26,80.66-11.34,66.34,71,66.34,71L355,340.84,292.56,361.6l-70.28-42L196,259.93Z"/><path class="cls-2" d="M285.88,385.35c-110.25,0-143.68-156.71-27.13-178.75-53.37,26.9-51.32,104,.7,130.5,52.18,26.53,126.83-38,80.11-94-17.79-21.33-53.86-27.53-77.46-43.43-28.56-19.25-53.11-45.22-68.33-77.34a184.89,184.89,0,0,1-13-119.83c65.93-6,156.22-5.68,201.82,55.1l-.62,44C340.4,59.05,275.23,42.35,217.87,44c.56,49.57,27.2,91.66,65.93,118.13,26.74,18.27,59.06,20.6,81.33,43.82C434,277.7,377.81,385.35,285.88,385.35Z"/><ellipse cx="292.56" cy="268.35" rx="20.95" ry="30.75"/><ellipse cx="494.96" cy="268.35" rx="20.95" ry="30.75"/><path d="M427.7,364.05c-.46-.52-13-12.73-28.78-13.12-15.74.39-28.32,12.6-28.78,13.12l-2.25,2.59.24,4.52c1.07,20.52,6.74,38.69,16.38,52.55,6.85,9.84,13.46,14.25,14.35,14.82l0,.07,0,0,0,0,0-.07c.89-.57,7.5-5,14.35-14.82,9.64-13.86,15.31-32,16.38-52.55l.24-4.52Z"/><path class="cls-2" d="M402.05,273.1c1,138.33,206.92,151.08,209.67-4.57,0,0-4.54-64.94-55.71-91.73l-.91-.83a184.82,184.82,0,0,0,39-53.64,184.89,184.89,0,0,0,13-119.83c-65.94-6-157.64-4-203.25,56.76l-1.78,208.09M570,44c-.46,41-18.77,76.86-47,103-25.67,17.73-55.6,26.26-79,41L444,75.28C480,51.58,525.51,42.72,570,44ZM535.39,333.18c-50,25.44-91.84-17.05-93.42-60.92l.25-9c1.67-18,10.56-35.54,28.91-47.84C552.23,161.11,616.31,292,535.39,333.18Z"/><path d="M177.41,191.3c-25.86,54.36-20.34,123.78,1,178.79a4.65,4.65,0,0,1,.12,4.2,3.58,3.58,0,0,1-3.43,1.72H137.84a8.42,8.42,0,0,1-5.14-1.8,10.38,10.38,0,0,1-3.46-4.38,289.12,289.12,0,0,1-15-55.79,7.33,7.33,0,0,0-2.3-4.46,6.32,6.32,0,0,0-4.42-1.86q-25.53-.14-51.07-.14a5,5,0,0,0-4.15,1.82,5.72,5.72,0,0,0-1.07,4.41,276.68,276.68,0,0,0,15,55.85,5.29,5.29,0,0,1,.16,4.5A3.47,3.47,0,0,1,63,376H25.82a8.71,8.71,0,0,1-5.25-1.85,11.16,11.16,0,0,1-3.67-4.5c-22.84-57.57-22.23-120.39,0-178A11.53,11.53,0,0,1,20.57,187a8.49,8.49,0,0,1,5.25-1.92H63a3.4,3.4,0,0,1,3.35,1.72,4.7,4.7,0,0,1-.32,4.19c-8.55,20.18-13.19,39.87-15.72,61.58a6.07,6.07,0,0,0,1.23,4.49,5,5,0,0,0,4.2,1.82q25.41-.22,50.82-.07a5.78,5.78,0,0,0,4.29-1.85,7,7,0,0,0,2-4.53c2.15-22,6.44-41.44,15.73-61.58a10.93,10.93,0,0,1,3.87-4.09,9.71,9.71,0,0,1,5.34-1.68h37.27c1.65,0,2.68.61,3.11,1.81S178.36,189.57,177.41,191.3Z"/><path d="M755.81,232.22l-34.87-.1A4.59,4.59,0,0,0,717,234a5.64,5.64,0,0,0-1,4.53c6.37,45.11,2.17,87.27-10,131a9.49,9.49,0,0,1-3,4.58,7.4,7.4,0,0,1-4.94,1.89H660.88a4,4,0,0,1-3.64-1.89,5.46,5.46,0,0,1-.37-4.57c12-43.76,16.28-85.85,10.2-131a7.83,7.83,0,0,0-2.33-4.51,6.34,6.34,0,0,0-4.61-1.83l-34.83.28a6.5,6.5,0,0,1-4.48-1.81,7.81,7.81,0,0,1-2.51-4.46,303.07,303.07,0,0,0-8.64-35.16,4.83,4.83,0,0,1,.36-4.28,4.07,4.07,0,0,1,3.65-1.76H744.86a7.39,7.39,0,0,1,4.82,1.71,8,8,0,0,1,2.76,4.17c3.11,11.55,5.88,23.2,8.17,34.94a5.66,5.66,0,0,1-.78,4.49A4.5,4.5,0,0,1,755.81,232.22Z"/></g></svg>